<?xml version="1.0" encoding="utf-8"?>
<!-- Generated by Mocodo 4.2.12 -->
<svg width="790" height="254" viewBox="0 0 790 254" xmlns="http://www.w3.org/2000/svg">
<rect x="0" y="0" width="790" height="254" fill="#f7f7f7" stroke="none" stroke-width="0"/>

<!-- Association APPARTENIR -->
<g>
	<line x1="280" y1="60" x2="166" y2="60" stroke="#de77ae" stroke-width="2"/>
	<line x1="52" y1="60" x2="166" y2="60" stroke="#de77ae" stroke-width="2"/>
	<g>
		<path d="M191 35 a14 14 90 0 1 14 14 V60 h-78 V49 a14 14 90 0 1 14 -14" fill="#f1b6da" stroke="#f1b6da" stroke-width="0"/>
		<path d="M205 60 v11 a14 14 90 0 1 -14 14 H141 a14 14 90 0 1 -14 -14 V60 H78" fill="#fde0ef" stroke="#fde0ef" stroke-width="0"/>
		<rect x="127" y="35" width="78" height="50" fill="none" rx="14" stroke="#de77ae" stroke-width="2"/>
		<line x1="127" y1="60" x2="205" y2="60" stroke="#de77ae" stroke-width="1"/>
		<text x="134" y="52.75" fill="#000000" font-family="Verdana" font-size="12">Appartenir</text>
	</g>
	<text x="214" y="77" fill="#4d9221" font-family="Verdana" font-size="12">0,N</text>
	<text x="100" y="77" fill="#4d9221" font-family="Verdana" font-size="12">0,N</text>
</g>

<!-- Association CONTENIR -->
<g>
	<line x1="280" y1="60" x2="384" y2="60" stroke="#de77ae" stroke-width="2"/>
	<line x1="502" y1="60" x2="384" y2="60" stroke="#de77ae" stroke-width="2"/>
	<g>
		<path d="M403 35 a14 14 90 0 1 14 14 V60 h-66 V49 a14 14 90 0 1 14 -14" fill="#f1b6da" stroke="#f1b6da" stroke-width="0"/>
		<path d="M417 60 v11 a14 14 90 0 1 -14 14 H365 a14 14 90 0 1 -14 -14 V60 H66" fill="#fde0ef" stroke="#fde0ef" stroke-width="0"/>
		<rect x="351" y="35" width="66" height="50" fill="none" rx="14" stroke="#de77ae" stroke-width="2"/>
		<line x1="351" y1="60" x2="417" y2="60" stroke="#de77ae" stroke-width="1"/>
		<text x="358" y="52.75" fill="#000000" font-family="Verdana" font-size="12">Contenir</text>
	</g>
	<text x="324" y="77" fill="#4d9221" font-family="Verdana" font-size="12">0,N</text>
	<text x="427" y="77" fill="#4d9221" font-family="Verdana" font-size="12">1,1</text>
</g>

<!-- Association POSSEDER -->
<g>
	<line x1="733" y1="60" x2="618" y2="60" stroke="#de77ae" stroke-width="2"/>
	<line x1="502" y1="60" x2="618" y2="60" stroke="#de77ae" stroke-width="2"/>
	<g>
		<path d="M639 35 a14 14 90 0 1 14 14 V60 h-70 V49 a14 14 90 0 1 14 -14" fill="#f1b6da" stroke="#f1b6da" stroke-width="0"/>
		<path d="M653 60 v11 a14 14 90 0 1 -14 14 H597 a14 14 90 0 1 -14 -14 V60 H70" fill="#fde0ef" stroke="#fde0ef" stroke-width="0"/>
		<rect x="583" y="35" width="70" height="50" fill="none" rx="14" stroke="#de77ae" stroke-width="2"/>
		<line x1="583" y1="60" x2="653" y2="60" stroke="#de77ae" stroke-width="1"/>
		<text x="591" y="52.75" fill="#000000" font-family="Verdana" font-size="12">Posséder</text>
	</g>
	<text x="659" y="77" fill="#4d9221" font-family="Verdana" font-size="12">1,1</text>
	<text x="556" y="77" fill="#4d9221" font-family="Verdana" font-size="12">0,N</text>
</g>

<!-- Association CREER -->
<g>
	<line x1="166" y1="186" x2="280" y2="186" stroke="#de77ae" stroke-width="2"/>
	<line x1="280" y1="60" x2="280" y2="186" stroke="#de77ae" stroke-width="2"/>
	<g>
		<path d="M294 161 a14 14 90 0 1 14 14 V186 h-56 V175 a14 14 90 0 1 14 -14" fill="#f1b6da" stroke="#f1b6da" stroke-width="0"/>
		<path d="M308 186 v11 a14 14 90 0 1 -14 14 H266 a14 14 90 0 1 -14 -14 V186 H56" fill="#fde0ef" stroke="#fde0ef" stroke-width="0"/>
		<rect x="252" y="161" width="56" height="50" fill="none" rx="14" stroke="#de77ae" stroke-width="2"/>
		<line x1="252" y1="186" x2="308" y2="186" stroke="#de77ae" stroke-width="1"/>
		<text x="260" y="178.75" fill="#000000" font-family="Verdana" font-size="12">CREER</text>
	</g>
	<text x="225" y="203" fill="#4d9221" font-family="Verdana" font-size="12">0,N</text>
	<text x="285" y="119" fill="#4d9221" font-family="Verdana" font-size="12">1,1</text>
</g>

<!-- Association DETERMINER -->
<g>
	<line x1="502" y1="60" x2="502" y2="186" stroke="#de77ae" stroke-width="2"/>
	<line x1="384" y1="186" x2="502" y2="186" stroke="#de77ae" stroke-width="2"/>
	<g>
		<path d="M530 161 a14 14 90 0 1 14 14 V186 h-84 V175 a14 14 90 0 1 14 -14" fill="#f1b6da" stroke="#f1b6da" stroke-width="0"/>
		<path d="M544 186 v11 a14 14 90 0 1 -14 14 H474 a14 14 90 0 1 -14 -14 V186 H84" fill="#fde0ef" stroke="#fde0ef" stroke-width="0"/>
		<rect x="460" y="161" width="84" height="50" fill="none" rx="14" stroke="#de77ae" stroke-width="2"/>
		<line x1="460" y1="186" x2="544" y2="186" stroke="#de77ae" stroke-width="1"/>
		<text x="468" y="178.75" fill="#000000" font-family="Verdana" font-size="12">Déterminer</text>
	</g>
	<text x="507" y="128" fill="#4d9221" font-family="Verdana" font-size="12">1,1</text>
	<text x="433" y="203" fill="#4d9221" font-family="Verdana" font-size="12">0,N</text>
</g>

<!-- Entity THEME -->
<g>
	<g>
		<rect x="9" y="26" width="86" height="25" fill="#b8e186" stroke="none" stroke-width="0" opacity="1"/>
		<rect x="9" y="51" width="86" height="43" fill="#e6f5d0" stroke="none" stroke-width="0" opacity="1"/>
		<rect x="9" y="26" width="86" height="68" fill="none" stroke="#7fbc41" stroke-width="2" opacity="1"/>
		<line x1="9" y1="51" x2="95" y2="51" stroke="#7fbc41" stroke-width="1"/>
	</g>
	<text x="31" y="43.75" fill="#000000" font-family="Verdana" font-size="12">THEME</text>
	<text x="14" y="68.8" fill="#000000" font-family="Verdana" font-size="12">code_theme</text>
	<line x1="14" y1="71" x2="89" y2="71" stroke="#000000" stroke-width="1"/>
	<text x="14" y="85.8" fill="#000000" font-family="Verdana" font-size="12">nom</text>
</g>

<!-- Entity QUIZ -->
<g>
	<g>
		<rect x="241" y="18" width="78" height="25" fill="#b8e186" stroke="none" stroke-width="0" opacity="1"/>
		<rect x="241" y="43" width="78" height="59" fill="#e6f5d0" stroke="none" stroke-width="0" opacity="1"/>
		<rect x="241" y="18" width="78" height="84" fill="none" stroke="#7fbc41" stroke-width="2" opacity="1"/>
		<line x1="241" y1="43" x2="319" y2="43" stroke="#7fbc41" stroke-width="1"/>
	</g>
	<text x="264" y="35.75" fill="#000000" font-family="Verdana" font-size="12">QUIZ</text>
	<text x="246" y="60.8" fill="#000000" font-family="Verdana" font-size="12">code_quiz</text>
	<line x1="246" y1="63" x2="308" y2="63" stroke="#000000" stroke-width="1"/>
	<text x="246" y="77.8" fill="#000000" font-family="Verdana" font-size="12">titre</text>
	<text x="246" y="94.8" fill="#000000" font-family="Verdana" font-size="12">description</text>
</g>

<!-- Entity QUESTION -->
<g>
	<g>
		<rect x="453" y="9" width="98" height="25" fill="#b8e186" stroke="none" stroke-width="0" opacity="1"/>
		<rect x="453" y="34" width="98" height="77" fill="#e6f5d0" stroke="none" stroke-width="0" opacity="1"/>
		<rect x="453" y="9" width="98" height="102" fill="none" stroke="#7fbc41" stroke-width="2" opacity="1"/>
		<line x1="453" y1="34" x2="551" y2="34" stroke="#7fbc41" stroke-width="1"/>
	</g>
	<text x="469" y="26.75" fill="#000000" font-family="Verdana" font-size="12">QUESTION</text>
	<text x="458" y="51.8" fill="#000000" font-family="Verdana" font-size="12">code_question</text>
	<line x1="458" y1="54" x2="546" y2="54" stroke="#000000" stroke-width="1"/>
	<text x="458" y="68.8" fill="#000000" font-family="Verdana" font-size="12">titre</text>
	<text x="458" y="85.8" fill="#000000" font-family="Verdana" font-size="12">wiki</text>
	<text x="458" y="102.8" fill="#000000" font-family="Verdana" font-size="12">anecdote</text>
</g>

<!-- Entity REPONSE -->
<g>
	<g>
		<rect x="685" y="18" width="96" height="25" fill="#b8e186" stroke="none" stroke-width="0" opacity="1"/>
		<rect x="685" y="43" width="96" height="59" fill="#e6f5d0" stroke="none" stroke-width="0" opacity="1"/>
		<rect x="685" y="18" width="96" height="84" fill="none" stroke="#7fbc41" stroke-width="2" opacity="1"/>
		<line x1="685" y1="43" x2="781" y2="43" stroke="#7fbc41" stroke-width="1"/>
	</g>
	<text x="704" y="35.75" fill="#000000" font-family="Verdana" font-size="12">REPONSE</text>
	<text x="690" y="60.8" fill="#000000" font-family="Verdana" font-size="12">code_réponse</text>
	<line x1="690" y1="63" x2="775" y2="63" stroke="#000000" stroke-width="1"/>
	<text x="690" y="77.8" fill="#000000" font-family="Verdana" font-size="12">description</text>
	<text x="690" y="94.8" fill="#000000" font-family="Verdana" font-size="12">est_valide</text>
</g>

<!-- Entity UTILISATEUR -->
<g>
	<g>
		<rect x="112" y="127" width="108" height="25" fill="#b8e186" stroke="none" stroke-width="0" opacity="1"/>
		<rect x="112" y="152" width="108" height="93" fill="#e6f5d0" stroke="none" stroke-width="0" opacity="1"/>
		<rect x="112" y="127" width="108" height="118" fill="none" stroke="#7fbc41" stroke-width="2" opacity="1"/>
		<line x1="112" y1="152" x2="220" y2="152" stroke="#7fbc41" stroke-width="1"/>
	</g>
	<text x="125" y="144.75" fill="#000000" font-family="Verdana" font-size="12">UTILISATEUR</text>
	<text x="117" y="169.8" fill="#000000" font-family="Verdana" font-size="12">code_utilisateur</text>
	<line x1="117" y1="172" x2="214" y2="172" stroke="#000000" stroke-width="1"/>
	<text x="117" y="186.8" fill="#000000" font-family="Verdana" font-size="12">email</text>
	<text x="117" y="203.8" fill="#000000" font-family="Verdana" font-size="12">prénom</text>
	<text x="117" y="220.8" fill="#000000" font-family="Verdana" font-size="12">nom</text>
	<text x="117" y="237.8" fill="#000000" font-family="Verdana" font-size="12">mot_de_passe</text>
</g>

<!-- Entity NIVEAU -->
<g>
	<g>
		<rect x="340" y="152" width="88" height="25" fill="#b8e186" stroke="none" stroke-width="0" opacity="1"/>
		<rect x="340" y="177" width="88" height="43" fill="#e6f5d0" stroke="none" stroke-width="0" opacity="1"/>
		<rect x="340" y="152" width="88" height="68" fill="none" stroke="#7fbc41" stroke-width="2" opacity="1"/>
		<line x1="340" y1="177" x2="428" y2="177" stroke="#7fbc41" stroke-width="1"/>
	</g>
	<text x="360" y="169.75" fill="#000000" font-family="Verdana" font-size="12">NIVEAU</text>
	<text x="345" y="194.8" fill="#000000" font-family="Verdana" font-size="12">code_niveau</text>
	<line x1="345" y1="197" x2="422" y2="197" stroke="#000000" stroke-width="1"/>
	<text x="345" y="211.8" fill="#000000" font-family="Verdana" font-size="12">nom</text>
</g>
</svg>